<?xml version="1.0" encoding="UTF-8"?>
<svg xmlns="http://www.w3.org/2000/svg" xmlns:xlink="http://www.w3.org/1999/xlink" width="1200" height="400" viewBox="0 0 1200 400" role="img" aria-labelledby="title desc">
<title id="title">Manu Vaya — Travel With Virtual With Me</title>
<desc id="desc">Primary horizontal logo lockup featuring a gradient location-pin monogram and wordmark.</desc>

<defs>
	<linearGradient id="mvGrad" x1="0%" y1="0%" x2="100%" y2="100%">
		<stop offset="0%" stop-color="#14b8a6"/>
		<stop offset="100%" stop-color="#3b82f6"/>
	</linearGradient>
	<filter id="softShadow" x="-20%" y="-20%" width="140%" height="140%">
		<feDropShadow dx="0" dy="6" stdDeviation="8" flood-color="#0b1220" flood-opacity="0.18"/>
	</filter>
	<style>
		text { font-family: "Montserrat", "Poppins", "Segoe UI", Ubuntu, Arial, sans-serif; }
	</style>
</defs>

<!-- Logo Mark -->
<g id="mark" transform="translate(60,20)" filter="url(#softShadow)">
	<!-- Pin silhouette -->
	<path d="M150 10 C 67 10 0 77 0 160 C 0 280 150 390 150 390 C 150 390 300 280 300 160 C 300 77 233 10 150 10 Z" fill="url(#mvGrad)"/>
	<!-- MV monogram (knockout-style with white strokes) -->
	<g stroke="#ffffff" stroke-width="18" stroke-linecap="round" stroke-linejoin="round" fill="none">
		<!-- Left vertical of M -->
		<path d="M70 260 L70 120"/>
		<!-- Middle V of M -->
		<path d="M70 120 L150 260 L230 120"/>
		<!-- Right vertical of M (also reads as part of V) -->
		<path d="M230 120 L230 260"/>
	</g>
</g>

<!-- Wordmark -->
<g id="wordmark" transform="translate(420,120)">
	<text x="0" y="0" font-size="96" font-weight="700" fill="#0f172a" letter-spacing="0.5">
		<tspan x="0" dy="0">Manu Vaya</tspan>
	</text>
	<text x="0" y="70" font-size="34" font-weight="500" fill="#334155" opacity="0.9" letter-spacing="0.3">
		<tspan x="0" dy="0">Travel With Virtual With Me</tspan>
	</text>
</g>

</svg>

